<?xml version="1.0" encoding="UTF-8" standalone="no"?>
<!-- Created with Inkscape (http://www.inkscape.org/) -->

<svg
   xmlns:dc="http://purl.org/dc/elements/1.1/"
   xmlns:cc="http://creativecommons.org/ns#"
   xmlns:rdf="http://www.w3.org/1999/02/22-rdf-syntax-ns#"
   xmlns:svg="http://www.w3.org/2000/svg"
   xmlns="http://www.w3.org/2000/svg"
   xmlns:sodipodi="http://sodipodi.sourceforge.net/DTD/sodipodi-0.dtd"
   xmlns:inkscape="http://www.inkscape.org/namespaces/inkscape"
   width="292.91931"
   height="324.64609"
   id="svg3060"
   version="1.1"
   inkscape:version="0.48.3.1 r9886"
   sodipodi:docname="cylTriGrid.svg"
   inkscape:export-filename="/home/amy/Dropbox/grid/userguide/images/paraTriGridCentre.png"
   inkscape:export-xdpi="70"
   inkscape:export-ydpi="70">
  <defs
     id="defs3062" />
  <sodipodi:namedview
     id="base"
     pagecolor="#ffffff"
     bordercolor="#666666"
     borderopacity="1.0"
     inkscape:pageopacity="0.0"
     inkscape:pageshadow="2"
     inkscape:zoom="0.70710678"
     inkscape:cx="-18.034134"
     inkscape:cy="-58.092997"
     inkscape:document-units="px"
     inkscape:current-layer="layer1"
     showgrid="true"
     inkscape:window-width="1914"
     inkscape:window-height="1194"
     inkscape:window-x="0"
     inkscape:window-y="0"
     inkscape:window-maximized="0"
     fit-margin-top="0"
     fit-margin-left="0"
     fit-margin-right="0"
     fit-margin-bottom="0"
     showguides="true"
     inkscape:guide-bbox="true" />
  <metadata
     id="metadata3065">
    <rdf:RDF>
      <cc:Work
         rdf:about="">
        <dc:format>image/svg+xml</dc:format>
        <dc:type
           rdf:resource="http://purl.org/dc/dcmitype/StillImage" />
        <dc:title></dc:title>
      </cc:Work>
    </rdf:RDF>
  </metadata>
  <g
     inkscape:label="Layer 1"
     inkscape:groupmode="layer"
     id="layer1"
     transform="translate(-115.21875,-424.85407)">
    <path
       sodipodi:type="arc"
       style="color:#000000;fill:#e6e6e6;fill-opacity:1;fill-rule:nonzero;stroke:#000000;stroke-width:1;marker:none;visibility:visible;display:inline;overflow:visible;enable-background:accumulate"
       id="path9050"
       sodipodi:cx="226"
       sodipodi:cy="134.77325"
       sodipodi:rx="202"
       sodipodi:ry="55"
       d="M 226.54987,189.77305 C 114.98876,189.85574 24.304433,165.29852 24.000748,134.92297 23.697064,104.54742 113.88902,79.856144 225.45013,79.773458 c 111.56111,-0.08269 202.24544,24.474532 202.54912,54.850082 0.30342,30.34935 -89.73853,55.02965 -201.20296,55.14929"
       transform="matrix(0.72190471,0,0,0.74466265,98.602732,365.81644)"
       sodipodi:start="1.5680742"
       sodipodi:end="7.8500396"
       sodipodi:open="true" />
    <path
       style="color:#000000;fill:none;stroke:#000000;stroke-width:0.73319536;marker:none;visibility:visible;display:inline;overflow:visible;enable-background:accumulate"
       d="m 262.15015,749.13334 c -80.53649,0.0616 -146.00193,-18.22527 -146.22117,-40.8448 m 291.64843,-0.22298 c 0.21903,22.60003 -64.78267,40.97853 -145.24937,41.06762"
       id="path9050-5"
       inkscape:connector-curvature="0"
       sodipodi:nodetypes="cccc" />
    <path
       style="color:#000000;fill:none;stroke:#000000;stroke-width:0.73319536;marker:none;visibility:visible;display:inline;overflow:visible;enable-background:accumulate"
       d="m 262.15015,720.63335 c -80.53649,0.0616 -146.00193,-18.22527 -146.22117,-40.8448 m 291.64843,-0.22298 c 0.21903,22.60003 -64.78268,40.97853 -145.24937,41.06762"
       id="path9050-5-3"
       inkscape:connector-curvature="0"
       sodipodi:nodetypes="cccc" />
    <path
       style="color:#000000;fill:none;stroke:#000000;stroke-width:0.73319536;marker:none;visibility:visible;display:inline;overflow:visible;enable-background:accumulate"
       d="m 262.15015,690.13335 c -80.53649,0.0616 -146.00193,-18.22527 -146.22117,-40.8448 m 291.64843,-0.22298 c 0.21903,22.60003 -64.78268,40.97853 -145.24937,41.06762"
       id="path9050-5-3-2"
       inkscape:connector-curvature="0"
       sodipodi:nodetypes="cccc" />
    <path
       style="color:#000000;fill:none;stroke:#000000;stroke-width:0.73319536;marker:none;visibility:visible;display:inline;overflow:visible;enable-background:accumulate"
       d="m 262.15015,659.63335 c -80.53649,0.0616 -146.00193,-18.22527 -146.22117,-40.8448 m 291.64843,-0.22298 c 0.21903,22.60003 -64.78268,40.97853 -145.24937,41.06762"
       id="path9050-5-3-2-9"
       inkscape:connector-curvature="0"
       sodipodi:nodetypes="cccc" />
    <path
       style="color:#000000;fill:none;stroke:#000000;stroke-width:0.73319536;marker:none;visibility:visible;display:inline;overflow:visible;enable-background:accumulate"
       d="m 262.15015,629.13335 c -80.53649,0.0616 -146.00193,-18.22527 -146.22117,-40.8448 m 291.64843,-0.22298 c 0.21903,22.60003 -64.78268,40.97853 -145.24937,41.06762"
       id="path9050-5-3-2-9-6"
       inkscape:connector-curvature="0"
       sodipodi:nodetypes="cccc" />
    <path
       style="color:#000000;fill:none;stroke:#000000;stroke-width:0.73319536;marker:none;visibility:visible;display:inline;overflow:visible;enable-background:accumulate"
       d="m 262.15015,598.63335 c -80.53649,0.0616 -146.00193,-18.22527 -146.22117,-40.8448 m 291.64843,-0.22298 c 0.21903,22.60003 -64.78268,40.97853 -145.24937,41.06762"
       id="path9050-5-3-2-9-6-7"
       inkscape:connector-curvature="0"
       sodipodi:nodetypes="cccc" />
    <path
       style="color:#000000;fill:none;stroke:#000000;stroke-width:0.73319536;marker:none;visibility:visible;display:inline;overflow:visible;enable-background:accumulate"
       d="m 262.15015,568.13335 c -80.53649,0.0616 -146.00193,-18.22527 -146.22117,-40.8448 m 291.64843,-0.22298 c 0.21903,22.60003 -64.78268,40.97853 -145.24937,41.06762"
       id="path9050-5-3-2-9-6-7-5"
       inkscape:connector-curvature="0"
       sodipodi:nodetypes="cccc" />
    <path
       style="color:#000000;fill:none;stroke:#000000;stroke-width:0.73319536;marker:none;visibility:visible;display:inline;overflow:visible;enable-background:accumulate"
       d="m 262.15015,537.63335 c -80.53649,0.0616 -146.00193,-18.22527 -146.22117,-40.8448 m 291.64843,-0.22298 c 0.21903,22.60003 -64.78268,40.97853 -145.24937,41.06762"
       id="path9050-5-3-2-9-6-7-5-6"
       inkscape:connector-curvature="0"
       sodipodi:nodetypes="cccc" />
    <path
       style="fill:none;stroke:#000000;stroke-width:1px;stroke-linecap:butt;stroke-linejoin:miter;stroke-opacity:1"
       d="m 329.33498,221.11012 0.17678,243.24474"
       id="path12358"
       inkscape:connector-curvature="0"
       transform="translate(78.138062,244.22677)"
       sodipodi:nodetypes="cc" />
    <path
       style="fill:none;stroke:#000000;stroke-width:1px;stroke-linecap:butt;stroke-linejoin:miter;stroke-opacity:1"
       d="m 115.83654,467.39235 0.35355,243.06796"
       id="path12360"
       inkscape:connector-curvature="0"
       sodipodi:nodetypes="cc" />
    <path
       style="fill:none;stroke:#000000;stroke-width:1px;stroke-linecap:butt;stroke-linejoin:miter;stroke-opacity:1"
       d="m 167.23075,262.47587 c 40.06939,75.66043 88.2705,160.33647 133.99674,225.03674"
       id="path12817"
       inkscape:connector-curvature="0"
       transform="translate(78.138062,244.22677)"
       sodipodi:nodetypes="cc" />
    <path
       style="fill:none;stroke:#000000;stroke-width:1px;stroke-linecap:butt;stroke-linejoin:miter;stroke-opacity:1"
       d="m 200.11122,262.47587 c 41.7193,75.66042 88.03479,149.90664 129.40054,203.64675"
       id="path12819"
       inkscape:connector-curvature="0"
       transform="translate(78.138062,244.22677)"
       sodipodi:nodetypes="cc" />
    <path
       style="fill:none;stroke:#000000;stroke-width:1px;stroke-linecap:butt;stroke-linejoin:miter;stroke-opacity:1"
       d="m 134.35029,260.88488 c 41.36575,81.55298 81.49405,157.27233 134.52706,235.99689"
       id="path12821"
       inkscape:connector-curvature="0"
       transform="translate(78.138062,244.22677)"
       sodipodi:nodetypes="cc" />
    <path
       style="fill:none;stroke:#000000;stroke-width:1px;stroke-linecap:butt;stroke-linejoin:miter;stroke-opacity:1"
       d="M 98.111066,255.05125 C 141.48028,337.42919 185.20305,420.86779 232.63813,502.53862"
       id="path12823"
       inkscape:connector-curvature="0"
       transform="translate(78.138062,244.22677)"
       sodipodi:nodetypes="cc" />
    <path
       style="fill:none;stroke:#000000;stroke-width:1px;stroke-linecap:butt;stroke-linejoin:miter;stroke-opacity:1"
       d="m 66.468037,246.38919 c 36.854973,87.5463 86.555423,176.80152 133.466403,257.74043"
       id="path12825"
       inkscape:connector-curvature="0"
       transform="translate(78.138062,244.22677)"
       sodipodi:nodetypes="cc" />
    <path
       style="fill:none;stroke:#000000;stroke-width:1px;stroke-linecap:butt;stroke-linejoin:miter;stroke-opacity:1"
       d="M 37.830213,224.64566 C 62.117604,314.66632 127.81565,440.05517 167.23075,504.65994"
       id="path12827"
       inkscape:connector-curvature="0"
       transform="translate(78.138062,244.22677)"
       sodipodi:nodetypes="cc" />
    <path
       style="fill:none;stroke:#000000;stroke-width:1px;stroke-linecap:butt;stroke-linejoin:miter;stroke-opacity:1"
       d="m 37.830213,286.74973 c 20.504426,75.94236 51.451908,146.09729 96.873627,215.43534"
       id="path13169"
       inkscape:connector-curvature="0"
       transform="translate(78.138062,244.22677)"
       sodipodi:nodetypes="cc" />
    <path
       style="fill:none;stroke:#000000;stroke-width:1px;stroke-linecap:butt;stroke-linejoin:miter;stroke-opacity:1"
       d="m 37.830213,345.56092 c 9.502432,48.90005 41.341653,123.47717 60.811183,152.02796"
       id="path13171"
       inkscape:connector-curvature="0"
       transform="translate(78.138062,244.22677)"
       sodipodi:nodetypes="cc" />
    <path
       style="fill:none;stroke:#000000;stroke-width:1px;stroke-linecap:butt;stroke-linejoin:miter;stroke-opacity:1"
       d="m 37.830212,407.78632 c 3.889088,39.06764 28.284272,79.90306 28.284272,79.90306"
       id="path13173"
       inkscape:connector-curvature="0"
       transform="translate(78.138062,244.22677)"
       sodipodi:nodetypes="cc" />
    <path
       style="fill:none;stroke:#000000;stroke-width:1px;stroke-linecap:butt;stroke-linejoin:miter;stroke-opacity:1"
       d="m 232.28458,260.7081 c 31.87873,53.79903 67.11621,104.41611 97.0504,147.43177"
       id="path13175"
       inkscape:connector-curvature="0"
       transform="translate(78.138062,244.22677)"
       sodipodi:nodetypes="cc" />
    <path
       style="fill:none;stroke:#000000;stroke-width:1px;stroke-linecap:butt;stroke-linejoin:miter;stroke-opacity:1"
       d="M 277.89573,506.70264 C 237.82634,582.36307 189.62523,666.86233 143.89899,731.5626"
       id="path12817-9"
       inkscape:connector-curvature="0"
       sodipodi:nodetypes="cc" />
    <path
       style="fill:none;stroke:#000000;stroke-width:1px;stroke-linecap:butt;stroke-linejoin:miter;stroke-opacity:1"
       d="m 245.01526,506.70264 c -41.7193,75.66042 -88.03479,149.90664 -129.40054,203.64675"
       id="path12819-2"
       inkscape:connector-curvature="0"
       sodipodi:nodetypes="cc" />
    <path
       style="fill:none;stroke:#000000;stroke-width:1px;stroke-linecap:butt;stroke-linejoin:miter;stroke-opacity:1"
       d="M 310.42264,504.93487 C 269.05689,586.48785 228.75181,663.44464 175.7188,742.1692"
       id="path12821-9"
       inkscape:connector-curvature="0"
       sodipodi:nodetypes="cc" />
    <path
       style="fill:none;stroke:#000000;stroke-width:1px;stroke-linecap:butt;stroke-linejoin:miter;stroke-opacity:1"
       d="M 346.83863,499.63157 C 303.46942,582.00951 257.27178,664.38745 212.48835,746.76539"
       id="path12823-5"
       inkscape:connector-curvature="0"
       sodipodi:nodetypes="cc" />
    <path
       style="fill:none;stroke:#000000;stroke-width:1px;stroke-linecap:butt;stroke-linejoin:miter;stroke-opacity:1"
       d="M 377.77456,491.14629 C 339.8265,578.2972 289.68084,667.92299 244.66171,749.24027"
       id="path12825-4"
       inkscape:connector-curvature="0"
       sodipodi:nodetypes="cc" />
    <path
       style="fill:none;stroke:#000000;stroke-width:1px;stroke-linecap:butt;stroke-linejoin:miter;stroke-opacity:1"
       d="M 407.29627,468.87243 C 382.30176,559.42342 317.31083,684.28194 277.89573,748.88671"
       id="path12827-7"
       inkscape:connector-curvature="0"
       sodipodi:nodetypes="cc" />
    <path
       style="fill:none;stroke:#000000;stroke-width:1px;stroke-linecap:butt;stroke-linejoin:miter;stroke-opacity:1"
       d="M 407.29627,530.9765 C 385.37762,607.97952 352.4856,679.19511 310.42264,746.41184"
       id="path13169-8"
       inkscape:connector-curvature="0"
       sodipodi:nodetypes="cc" />
    <path
       style="fill:none;stroke:#000000;stroke-width:1px;stroke-linecap:butt;stroke-linejoin:miter;stroke-opacity:1"
       d="m 407.29627,592.01992 c -9.67922,49.25361 -42.75587,120.36105 -60.63441,149.61895"
       id="path13171-5"
       inkscape:connector-curvature="0"
       sodipodi:nodetypes="cc" />
    <path
       style="fill:none;stroke:#000000;stroke-width:1px;stroke-linecap:butt;stroke-linejoin:miter;stroke-opacity:1"
       d="m 268.70058,254.87447 c 19.55721,34.40282 40.79376,69.77709 60.6344,92.98454"
       id="path13312"
       inkscape:connector-curvature="0"
       transform="translate(78.138062,244.22677)"
       sodipodi:nodetypes="cc" />
    <path
       style="fill:none;stroke:#000000;stroke-width:1px;stroke-linecap:butt;stroke-linejoin:miter;stroke-opacity:1"
       d="m 299.99005,246.56597 c 8.13173,16.49916 17.67767,31.05377 29.16816,39.4212"
       id="path13314"
       inkscape:connector-curvature="0"
       transform="translate(78.138062,244.22677)"
       sodipodi:nodetypes="cc" />
    <path
       style="fill:none;stroke:#000000;stroke-width:1px;stroke-linecap:butt;stroke-linejoin:miter;stroke-opacity:1"
       d="m 134.35029,261.06166 c -31.80218,50.5108 -63.233749,99.85236 -96.520077,147.07821"
       id="path13316"
       inkscape:connector-curvature="0"
       transform="translate(78.138062,244.22677)"
       sodipodi:nodetypes="cc" />
    <path
       style="fill:none;stroke:#000000;stroke-width:1px;stroke-linecap:butt;stroke-linejoin:miter;stroke-opacity:1"
       d="m 97.580736,254.6977 c -17.556224,32.91172 -35.159375,64.209 -59.39697,92.98454"
       id="path13318"
       inkscape:connector-curvature="0"
       transform="translate(78.138062,244.22677)"
       sodipodi:nodetypes="cc" />
    <path
       style="fill:none;stroke:#000000;stroke-width:1px;stroke-linecap:butt;stroke-linejoin:miter;stroke-opacity:1"
       d="m 66.291261,246.74274 c -7.418716,15.04964 -16.6931,28.33347 -28.461048,40.48187"
       id="path13320"
       inkscape:connector-curvature="0"
       transform="translate(78.138062,244.22677)"
       sodipodi:nodetypes="cc" />
    <path
       style="fill:none;stroke:#000000;stroke-width:1px;stroke-linecap:butt;stroke-linejoin:miter;stroke-opacity:1"
       d="m 328.98143,407.96309 c -3.47661,29.81634 -13.49396,55.21326 -27.40039,79.90307"
       id="path13322"
       inkscape:connector-curvature="0"
       transform="translate(78.138062,244.22677)"
       sodipodi:nodetypes="cc" />
  </g>
</svg>
